<svg width="873" height="100" viewBox="0 0 873 100" fill="none" xmlns="http://www.w3.org/2000/svg">
<g id="&#227;&#130;&#132;r&#205;&#165;as&#205;&#163;a&#205;&#171;d Me&#226;&#136;&#130;&#206;&#144;&#224;&#184;&#163;e&#226;&#128;&#160;&#226;&#128;&#160;&#206;&#144;">
<path d="M44.9649 28.7863C46.2583 29.9818 48.2346 30.0554 49.6002 28.9431V28.9431C51.214 27.6286 51.327 25.2136 49.7721 23.8299C45.9094 20.3923 40.8327 16.3508 38.3227 14.5088L32.9113 18.5277C36.3409 20.9997 41.2246 25.3289 44.9649 28.7863ZM16.563 23.0972L8.74021 26.3848C10.3053 28.2812 12.2704 31.2275 13.5475 33.1283C15.2202 35.7911 17.0996 39.4109 19.1797 43.6037C14.9854 45.5879 11.0762 47.3756 7.8316 48.6732C6.11404 49.3714 2.77344 50.6705 0 51.3848L3.76748 59.2003C8.15226 57.1173 14.8188 53.5593 22.1559 49.8951C23.4418 52.3718 24.6346 55.042 25.9248 57.8066C31.5878 70.2978 36.4306 85.6819 39.5789 96.9632V96.9632C44.0674 95.6892 46.6008 90.9418 45.0738 86.5329C41.5594 76.3851 36.8206 63.6832 32.5958 54.5367C31.4044 51.9625 30.1156 49.2938 28.8268 46.6251C39.8826 41.2721 51.6205 36.5808 60.0675 36.4521C69.4744 36.3088 74.0649 41.4235 74.1511 47.0868C74.2564 53.998 69.9287 59.8246 59.4659 59.984C54.3785 60.0615 49.5571 58.6948 45.7887 57.12L45.6148 64.6115C49.2828 65.8998 54.6787 67.1617 60.054 67.0798C75.0283 66.8517 82.0043 58.3925 81.8361 47.3538C81.6767 36.891 73.4021 29.4322 60.1557 29.634C50.1728 29.7861 37.2933 35.1669 25.7561 40.4312C23.7749 36.4289 21.7967 32.6186 20.0206 29.4773C18.9384 27.7656 17.2584 24.6228 16.563 23.0972Z" fill="white"/>
<path d="M106 50.5C107.548 47.084 110.145 44.3302 113.255 42.5547C116.428 40.7781 120.35 39.8543 125.022 39.7831L125.123 46.4063L123.489 46.3352C118.178 46.4161 114.043 48.1113 111.085 51.4207C108.128 54.7302 106.693 59.3285 106.783 65.2158L107.123 87.5333C107.152 89.4152 105.649 90.9641 103.767 90.9928V90.9928C101.885 91.0215 100.337 89.5191 100.308 87.6371L99.9752 65.7996V60V54.5L99.5 50.5L98.5 46.5L97.5 43.5L96.5 40.5L104 40L106 50.5Z" fill="white"/>
<path d="M112.53 4.07563C113.106 4.06686 113.589 4.25152 113.979 4.62962C114.431 4.94276 114.664 5.48329 114.675 6.2512C114.686 6.95512 114.47 7.50247 114.028 7.89325C113.649 8.21906 113.172 8.38636 112.596 8.39513C111.956 8.40488 111.409 8.25319 110.957 7.94005C110.503 7.56292 110.271 7.02238 110.26 6.31847C110.248 5.55056 110.464 5.00321 110.907 4.67642C111.349 4.28564 111.89 4.08538 112.53 4.07563ZM114.472 11.823L114.785 32.3646L110.946 32.423L110.633 11.8814L114.472 11.823Z" fill="white"/>
<path d="M155.773 39.3146C162.365 39.2142 167.445 40.801 171.016 44.075C174.585 47.285 176.419 52.1216 176.517 58.5849L176.994 89.8773L170.467 89.9767L170.347 82.1056C168.851 84.7527 166.611 86.8351 163.625 88.3527C160.704 89.8694 157.196 90.6589 153.1 90.7213C147.469 90.8071 142.969 89.5315 139.6 86.8945C136.232 84.2575 134.514 80.7313 134.447 76.3158C134.381 72.0283 135.864 68.5493 138.896 65.8788C141.992 63.2073 146.931 61.8199 153.714 61.7166L169.745 61.4724L169.698 58.4007C169.632 54.0492 168.365 50.7722 165.9 48.5695C163.433 46.3028 159.864 45.205 155.192 45.2762C151.993 45.3249 148.929 45.9156 146.002 47.0484C143.074 48.1171 140.568 49.5954 138.485 51.4834L135.336 46.4428C137.862 44.228 140.909 42.5174 144.475 41.311C148.04 40.0405 151.806 39.3751 155.773 39.3146ZM154.074 85.3298C157.914 85.2714 161.196 84.3572 163.922 82.5875C166.646 80.7538 168.655 78.1629 169.948 74.8148L169.822 66.5598L153.984 66.8011C145.345 66.9327 141.071 70.0061 141.163 76.0214C141.208 78.9651 142.363 81.2838 144.629 82.9774C146.894 84.6071 150.043 85.3913 154.074 85.3298Z" fill="white"/>
<path d="M209.047 89.869C204.951 89.9314 201.007 89.4154 197.214 88.3211C193.484 87.1618 190.549 85.7023 188.41 83.9427L191.4 78.5205C193.537 80.1521 196.214 81.4875 199.43 82.5267C202.645 83.5018 205.98 83.963 209.436 83.9104C214.043 83.8402 217.424 83.0846 219.579 81.6436C221.796 80.1377 222.885 78.0729 222.845 75.4492C222.816 73.5934 222.187 72.1628 220.955 71.1575C219.723 70.0881 218.175 69.3116 216.311 68.8279C214.446 68.2803 211.974 67.7739 208.895 67.3087C204.788 66.6032 201.48 65.8855 198.973 65.1556C196.465 64.3617 194.3 63.0185 192.479 61.126C190.722 59.2326 189.818 56.5901 189.766 53.1985C189.702 48.9749 191.409 45.4925 194.887 42.7512C198.366 40.0099 203.241 38.5915 209.512 38.496C212.776 38.4463 216.046 38.8445 219.324 39.6907C222.6 40.4728 225.305 41.5518 227.438 42.9274L224.546 48.4441C220.342 45.6278 215.361 44.2636 209.601 44.3513C205.25 44.4176 201.966 45.2357 199.75 46.8056C197.597 48.3746 196.54 50.4069 196.578 52.9027C196.607 54.8224 197.239 56.349 198.472 57.4823C199.77 58.6147 201.351 59.4547 203.215 60.0024C205.079 60.486 207.647 60.991 210.919 61.5172C214.962 62.2237 218.206 62.9424 220.649 63.6732C223.092 64.4041 225.192 65.6843 226.948 67.5137C228.704 69.3432 229.607 71.8897 229.657 75.1534C229.724 79.5689 227.922 83.1167 224.25 85.797C220.642 88.4122 215.574 89.7696 209.047 89.869Z" fill="white"/>
<path d="M208.59 9.56547C211.405 9.52258 213.493 10.0348 214.854 11.1022C216.214 12.1696 216.913 13.9192 216.95 16.3509L217.163 30.3653L214.38 30.4077L213.664 27.5383L213.472 27.5412C212.465 28.6447 211.389 29.4931 210.246 30.0866C209.166 30.6151 207.666 30.894 205.747 30.9232C203.635 30.9554 201.9 30.5018 200.541 29.5624C199.118 28.56 198.39 27.0029 198.358 24.8911C198.327 22.8433 199.199 21.2619 200.974 20.1467C202.749 19.0315 205.524 18.3812 209.297 18.1957L213.231 18.0398L213.212 16.7919C213.186 15.0641 212.752 13.8866 211.91 13.2593C211.068 12.5681 209.878 12.2341 208.343 12.2575C207.127 12.2761 205.977 12.4536 204.894 12.7901C203.811 13.1267 202.793 13.5262 201.84 13.9888L200.649 11.4146C201.666 10.9511 202.876 10.5486 204.279 10.2072C205.617 9.80278 207.054 9.58887 208.59 9.56547ZM209.812 20.4921C206.934 20.664 204.957 21.1101 203.88 21.8306C202.803 22.5511 202.274 23.5833 202.295 24.9271C202.312 26.079 202.709 26.9371 203.486 27.5013C204.262 28.0015 205.29 28.2419 206.57 28.2224C208.489 28.1932 210.082 27.6888 211.347 26.7095C212.676 25.7291 213.325 24.215 213.294 22.1673L213.266 20.3435L209.812 20.4921Z" fill="white"/>
<path d="M259.355 37.7367C265.946 37.6363 271.027 39.2231 274.597 42.4971C278.167 45.7071 280.001 50.5437 280.099 57.0069L280.576 88.2993L274.049 88.3987L273.929 80.5276C272.433 83.1747 270.192 85.2571 267.207 86.7747C264.286 88.2914 260.777 89.081 256.682 89.1434C251.051 89.2291 246.551 87.9535 243.182 85.3165C239.813 82.6795 238.096 79.1533 238.028 74.7378C237.963 70.4503 239.446 66.9713 242.478 64.3008C245.574 61.6293 250.513 60.242 257.296 60.1386L273.326 59.8944L273.28 56.8228C273.213 52.4713 271.947 49.1942 269.481 46.9915C267.015 44.7248 263.445 43.6271 258.774 43.6982C255.574 43.747 252.511 44.3377 249.584 45.4704C246.656 46.5391 244.15 48.0175 242.067 49.9054L238.917 44.8648C241.444 42.6501 244.49 40.9395 248.056 39.733C251.621 38.4626 255.388 37.7971 259.355 37.7367ZM257.656 83.7519C261.495 83.6934 264.778 82.7793 267.503 81.0096C270.228 79.1759 272.236 76.585 273.53 73.2369L273.404 64.9818L257.566 65.2231C248.927 65.3547 244.653 68.4282 244.745 74.4435C244.789 77.3871 245.945 79.7058 248.211 81.3995C250.476 83.0292 253.624 83.8133 257.656 83.7519Z" fill="white"/>
<path d="M268.101 9.68492C270.725 9.64495 272.686 10.2231 273.984 11.4195C275.281 12.5519 275.95 14.4299 275.99 17.0536L276.195 30.4921L272.451 30.5491L272.25 17.3026C272.2 14.039 270.607 12.4311 267.471 12.4788C265.232 12.513 263.641 13.1133 262.698 14.2798C261.756 15.4462 261.302 17.1494 261.336 19.3891L261.509 30.7158L257.765 30.7728L257.563 17.5264C257.513 14.2627 255.889 12.6553 252.689 12.704C250.385 12.7391 248.795 13.4034 247.919 14.6969C247.043 15.9904 246.623 17.853 246.66 20.2848L246.822 30.9395L242.983 30.998L242.67 10.4564L245.741 10.4096L246.36 13.1845L246.552 13.1816C247.303 12.082 248.283 11.267 249.491 10.7365C250.699 10.2061 251.975 9.93059 253.319 9.91012C256.966 9.85455 259.352 10.9703 260.475 13.2575L260.667 13.2546C261.48 12.0261 262.523 11.1461 263.795 10.6146C265.13 10.0182 266.565 9.70832 268.101 9.68492Z" fill="white"/>
<path d="M344.076 16.0917L345.161 87.3154L338.634 87.4148L338.482 77.432C336.486 80.8548 333.806 83.4879 330.441 85.3314C327.141 87.1739 323.379 88.1273 319.156 88.1916C314.42 88.2638 310.116 87.2412 306.243 85.124C302.371 83.0067 299.317 80.0129 297.082 76.1425C294.846 72.2721 293.691 67.8412 293.615 62.8497C293.539 57.8583 294.559 53.3943 296.675 49.4576C298.791 45.5209 301.753 42.4674 305.561 40.2972C309.367 38.0629 313.638 36.9097 318.373 36.8376C322.469 36.7752 326.162 37.583 329.452 39.2611C332.804 40.8742 335.562 43.2965 337.723 46.528L337.261 16.1955L344.076 16.0917ZM319.639 82.1355C323.159 82.0819 326.315 81.2338 329.106 79.591C331.96 77.8834 334.164 75.5135 335.718 72.4815C337.336 69.4485 338.116 66.0122 338.058 62.1727C337.999 58.3331 337.115 54.9222 335.405 51.9399C333.76 48.9566 331.485 46.687 328.581 45.1311C325.74 43.5102 322.56 42.7265 319.04 42.7801C315.456 42.8347 312.237 43.7159 309.383 45.4235C306.592 47.0662 304.387 49.4041 302.769 52.4371C301.215 55.4691 300.467 58.9049 300.526 62.7444C300.584 66.584 301.436 69.9954 303.082 72.9787C304.792 75.961 307.067 78.2626 309.908 79.8835C312.812 81.4395 316.056 82.1901 319.639 82.1355Z" fill="white"/>
<path d="M460.517 21.1027L461.489 84.9132C461.518 86.7809 460.027 88.318 458.159 88.3464V88.3464C456.272 88.3752 454.726 86.8528 454.726 84.9648V34.511L435.699 80.7071L417.685 34.511V84.6219C417.685 86.2788 416.342 87.6219 414.685 87.6219V87.6219C413.028 87.6219 411.685 86.2788 411.685 84.6219V21.1027L417.685 21.1919L429 49L435.699 69.8987L454.662 21.1919L460.517 21.1027Z" fill="white"/>
<path d="M524.551 61.4439L482.316 62.0873C482.78 67.3288 484.86 71.5536 488.558 74.7617C492.254 77.9058 496.886 79.4354 502.453 79.3506C505.589 79.3028 508.46 78.715 511.067 77.5872C513.674 76.3953 515.92 74.6969 517.807 72.4919L521.713 76.8489C519.515 79.5707 516.73 81.6614 513.36 83.1209C510.054 84.5794 506.385 85.3394 502.353 85.4008C497.17 85.4798 492.546 84.4621 488.481 82.3477C484.48 80.1684 481.329 77.1441 479.03 73.2747C476.731 69.4052 475.544 65.0068 475.469 60.0794C475.394 55.1519 476.382 50.7204 478.434 46.7847C480.551 42.848 483.448 39.7635 487.126 37.5312C490.869 35.2979 495.076 34.1457 499.747 34.0745C504.419 34.0034 508.627 35.0274 512.372 37.1466C516.116 39.2658 519.074 42.2611 521.245 46.1325C523.416 49.9399 524.539 54.3393 524.615 59.3307L524.551 61.4439ZM499.836 39.9299C494.973 40.004 490.901 41.6342 487.622 44.8205C484.405 47.9419 482.61 52.0017 482.238 56.9999L518.042 56.4545C517.518 51.4699 515.569 47.4671 512.195 44.4461C508.883 41.3602 504.764 39.8548 499.836 39.9299Z" fill="white"/>
<path d="M555.771 15.171C565.882 15.017 573.801 18.0007 579.526 24.1222C585.252 30.2437 588.202 38.9678 588.374 50.2944C588.534 60.7892 586.197 69.1138 581.362 75.2682C576.59 81.3575 569.693 84.471 560.67 84.6084C556.126 84.6776 552.049 83.8756 548.44 82.2024C544.829 80.4652 541.975 78.0124 539.878 74.844C537.846 71.6746 536.797 67.9781 536.733 63.7546C536.669 59.5311 537.604 55.8044 539.539 52.5746C541.537 49.2798 544.315 46.7412 547.872 44.9588C551.493 43.1754 555.64 42.2481 560.311 42.177C565.175 42.1029 569.447 43.1579 573.129 45.3421C576.874 47.4613 579.609 50.524 581.334 54.5302C581.495 52.4795 581.562 50.6222 581.537 48.9584C581.401 39.9995 579.055 33.0904 574.5 28.2312C569.946 23.372 563.733 21.0024 555.862 21.1223C550.807 21.1993 546.081 21.9434 541.686 23.3545L540.541 17.5153C545.063 16.0382 550.14 15.2568 555.771 15.171ZM560.964 78.7473C564.74 78.6897 567.993 77.9361 570.723 76.4863C573.452 74.9726 575.503 73.0531 576.876 70.728C578.312 68.3378 579.009 65.7989 578.968 63.1112C578.924 60.2315 578.117 57.6515 576.546 55.3712C575.038 53.0259 572.93 51.2018 570.222 49.8989C567.514 48.596 564.464 47.9704 561.072 48.0221C555.569 48.1059 551.239 49.58 548.082 52.4444C544.988 55.2439 543.477 58.9793 543.548 63.6508C543.619 68.2582 545.243 71.9459 548.421 74.7138C551.664 77.4808 555.845 78.8252 560.964 78.7473Z" fill="white"/>
<path d="M612.57 68.0719C612.617 71.1436 613.228 73.4385 614.404 74.9568C615.643 76.4741 617.542 77.2133 620.102 77.1743C621.51 77.1528 622.948 77.0349 624.417 76.8205C625.949 76.5411 627.129 76.2671 627.957 75.9985L628.055 82.4297C627.166 82.8913 625.859 83.2633 624.135 83.5456C622.413 83.8919 620.719 84.0777 619.055 84.103C616.24 84.1459 613.705 83.7365 611.452 82.8747C609.261 81.948 607.509 80.3425 606.194 78.0582C604.942 75.709 604.284 72.4547 604.221 68.2952L603.667 31.9154L612.018 31.7882L612.57 68.0719ZM597.912 13.3769C599.127 13.3584 600.157 13.7267 601.001 14.482C601.907 15.1723 602.373 16.3493 602.399 18.0131C602.423 19.6129 601.994 20.8356 601.11 21.6811C600.29 22.4617 599.272 22.8613 598.056 22.8798C596.841 22.8983 595.811 22.53 594.967 21.7747C594.059 20.9565 593.592 19.7474 593.568 18.1476C593.542 16.4838 593.972 15.2931 594.858 14.5756C595.678 13.795 596.696 13.3954 597.912 13.3769ZM618.933 13.0567C620.085 13.0391 621.115 13.4075 622.022 14.1617C622.929 14.852 623.395 16.0291 623.42 17.6929C623.445 19.2927 623.015 20.5154 622.132 21.3609C621.248 22.1425 620.23 22.542 619.078 22.5596C617.798 22.5791 616.736 22.2112 615.893 21.456C615.048 20.6367 614.614 19.4272 614.589 17.8274C614.564 16.1636 614.962 14.9734 615.783 14.2568C616.603 13.4762 617.653 13.0762 618.933 13.0567Z" fill="white"/>
<path d="M652.335 83.596C648.559 83.6536 645.035 83.3552 641.76 82.701C638.549 81.9819 635.816 81.1274 633.56 80.1376L635.951 73.1884C638.011 73.9891 640.455 74.752 643.282 75.477C646.174 76.201 649.219 76.5387 652.419 76.4899C655.81 76.4383 658.616 75.7555 660.837 74.4415C663.057 73.1275 664.148 71.2547 664.111 68.823C664.078 66.6472 663.155 64.869 661.342 63.4885C659.529 62.108 656.629 60.84 652.643 59.6846C648.592 58.4661 645.148 57.1745 642.311 55.8095C639.537 54.3796 637.398 52.684 635.896 50.7226C634.457 48.6963 633.715 46.1793 633.669 43.1717C633.609 39.2041 635.19 35.8837 638.414 33.2102C641.638 30.5368 646.833 29.1456 654 29.0364C657.072 28.9896 659.956 29.2337 662.652 29.7687C665.412 30.2387 667.567 30.9419 669.117 31.8784L669.227 39.0776C667.615 38.334 665.396 37.6318 662.57 36.9707C659.744 36.3097 656.827 36.0021 653.819 36.0479C649.531 36.1132 646.502 36.8315 644.731 38.2026C643.022 39.5088 642.181 40.9938 642.206 42.6576C642.228 44.0654 642.63 45.2434 643.412 46.1916C644.259 47.1388 645.649 48.0458 647.582 48.9124C649.58 49.7781 652.251 50.7615 655.596 51.8627C658.683 52.8398 661.517 53.9807 664.097 55.2856C666.677 56.5904 668.719 58.2555 670.222 60.2809C671.788 62.2412 672.595 64.7893 672.643 67.9249C672.684 70.6126 672.05 73.1505 670.742 75.5387C669.498 77.862 667.383 79.7824 664.397 81.3C661.411 82.7537 657.39 83.519 652.335 83.596Z" fill="white"/>
<path d="M729.746 58.318L687.511 58.9614C687.975 64.2029 690.055 68.4277 693.753 71.6358C697.449 74.7798 702.081 76.3095 707.648 76.2246C710.784 76.1769 713.655 75.5891 716.262 74.4612C718.868 73.2694 721.115 71.571 723.001 69.366L726.908 73.723C724.709 76.4448 721.925 78.5354 718.555 79.9949C715.249 81.4535 711.58 82.2135 707.548 82.2749C702.365 82.3538 697.741 81.3361 693.676 79.2218C689.675 77.0425 686.524 74.0182 684.225 70.1487C681.926 66.2793 680.739 61.8809 680.664 56.9535C680.588 52.026 681.577 47.5945 683.629 43.6587C685.746 39.722 688.643 36.6376 692.321 34.4053C696.064 32.172 700.271 31.0198 704.942 30.9486C709.614 30.8775 713.822 31.9015 717.566 34.0207C721.311 36.1399 724.269 39.1352 726.44 43.0066C728.611 46.8139 729.734 51.2133 729.81 56.2048L729.746 58.318ZM705.031 36.8039C700.168 36.878 696.096 38.5082 692.816 41.6946C689.6 44.8159 687.805 48.8757 687.433 53.874L723.237 53.3285C722.713 48.3439 720.764 44.3412 717.39 41.3202C714.078 38.2343 709.959 36.7289 705.031 36.8039Z" fill="white"/>
<path d="M756.843 43.8876L739.901 44.1457C738.231 44.1711 736.857 42.838 736.831 41.1681V41.1681C736.806 39.4982 738.139 38.1238 739.809 38.0984L756.751 37.8403L756.437 17.2507C756.408 15.3687 757.911 13.8198 759.793 13.7912V13.7912C761.675 13.7625 763.224 15.2649 763.252 17.1468L763.566 37.7364L780.508 37.4783C782.178 37.4529 783.552 38.786 783.578 40.4559V40.4559C783.603 42.1258 782.27 43.5002 780.6 43.5256L763.658 43.7837L764.456 96.1456C764.484 98.0276 762.982 99.5765 761.1 99.6052V99.6052V99.6052C759.218 99.6338 757.669 98.1315 757.64 96.2495L756.843 43.8876Z" fill="white"/>
<path d="M809.337 43.0879L792.395 43.346C790.725 43.3714 789.35 42.0383 789.325 40.3684V40.3684C789.3 38.6985 790.633 37.3241 792.303 37.2987L809.245 37.0406L808.931 16.451C808.902 14.569 810.405 13.0201 812.287 12.9915V12.9915C814.169 12.9628 815.717 14.4652 815.746 16.3471L816.06 36.9367L833.002 36.6787C834.672 36.6532 836.046 37.9863 836.072 39.6562V39.6562C836.097 41.3261 834.764 42.7005 833.094 42.726L816.152 42.9841L816.95 95.346C816.978 97.2279 815.476 98.7768 813.594 98.8055V98.8055C811.712 98.8342 810.163 97.3318 810.134 95.4498L809.337 43.0879Z" fill="white"/>
<path d="M622.022 14.1617C621.115 13.4075 620.085 13.0391 618.933 13.0567C617.653 13.0762 616.603 13.4762 615.783 14.2568C614.962 14.9734 614.564 16.1636 614.589 17.8274C614.614 19.4272 615.048 20.6367 615.893 21.456C616.736 22.2112 617.798 22.5791 619.078 22.5596C620.23 22.542 621.248 22.1425 622.132 21.3609C623.015 20.5154 623.445 19.2927 623.42 17.6929C623.395 16.0291 622.929 14.852 622.022 14.1617Z" fill="white"/>
<path d="M622.022 14.1617C621.115 13.4075 620.085 13.0391 618.933 13.0567C617.653 13.0762 616.603 13.4762 615.783 14.2568C614.962 14.9734 614.564 16.1636 614.589 17.8274C614.614 19.4272 615.048 20.6367 615.893 21.456C616.736 22.2112 617.798 22.5791 619.078 22.5596C620.23 22.542 621.248 22.1425 622.132 21.3609C623.015 20.5154 623.445 19.2927 623.42 17.6929C623.395 16.0291 622.929 14.852 622.022 14.1617Z" fill="white"/>
<path d="M611.444 4.97907C610.537 4.2248 609.507 3.85645 608.355 3.874C607.075 3.8935 606.025 4.29354 605.205 5.07412C604.384 5.79071 603.986 6.98092 604.011 8.64473C604.036 10.2445 604.47 11.4541 605.315 12.2733C606.158 13.0285 607.22 13.3964 608.5 13.3769C609.652 13.3594 610.67 12.9598 611.554 12.1783C612.437 11.3327 612.867 10.11 612.842 8.51019C612.817 6.84638 612.351 5.66934 611.444 4.97907Z" fill="white"/>
<path d="M611.444 4.97907C610.537 4.2248 609.507 3.85645 608.355 3.874C607.075 3.8935 606.025 4.29354 605.205 5.07412C604.384 5.79071 603.986 6.98092 604.011 8.64473C604.036 10.2445 604.47 11.4541 605.315 12.2733C606.158 13.0285 607.22 13.3964 608.5 13.3769C609.652 13.3594 610.67 12.9598 611.554 12.1783C612.437 11.3327 612.867 10.11 612.842 8.51019C612.817 6.84638 612.351 5.66934 611.444 4.97907Z" fill="white"/>
<path d="M856.563 65.9096C856.609 68.9813 857.22 71.2762 858.396 72.7945C859.635 74.3118 861.534 75.0509 864.094 75.0119C865.502 74.9905 866.94 74.8726 868.409 74.6582C869.941 74.3788 871.121 74.1048 871.949 73.8362L872.047 80.2674C871.158 80.729 869.852 81.1009 868.128 81.3832C866.405 81.7295 864.711 81.9153 863.048 81.9407C860.232 81.9836 857.697 81.5741 855.444 80.7124C853.254 79.7856 851.501 78.1801 850.186 75.8959C848.934 73.5467 848.276 70.2923 848.213 66.1328L847.659 29.7531L856.01 29.6259L856.563 65.9096ZM841.904 11.2146C843.12 11.1961 844.149 11.5644 844.993 12.3197C845.9 13.0099 846.366 14.187 846.391 15.8508C846.415 17.4506 845.986 18.6733 845.103 19.5188C844.282 20.2994 843.264 20.699 842.049 20.7175C840.833 20.736 839.803 20.3677 838.959 19.6124C838.051 18.7942 837.584 17.5851 837.56 15.9853C837.535 14.3215 837.964 13.1308 838.85 12.4133C839.67 11.6327 840.688 11.2331 841.904 11.2146ZM862.925 10.8944C864.077 10.8768 865.107 11.2452 866.015 11.9994C866.921 12.6897 867.387 13.8667 867.412 15.5305C867.437 17.1304 867.007 18.353 866.124 19.1986C865.24 19.9802 864.222 20.3797 863.07 20.3973C861.79 20.4168 860.728 20.0489 859.885 19.2936C859.04 18.4744 858.606 17.2649 858.581 15.6651C858.556 14.0013 858.954 12.8111 859.775 12.0945C860.595 11.3139 861.645 10.9139 862.925 10.8944Z" fill="white"/>
<path d="M866.015 11.9994C865.107 11.2452 864.077 10.8768 862.925 10.8944C861.645 10.9139 860.595 11.3139 859.775 12.0945C858.954 12.8111 858.556 14.0013 858.581 15.6651C858.606 17.2649 859.04 18.4744 859.885 19.2936C860.728 20.0489 861.79 20.4168 863.07 20.3973C864.222 20.3797 865.24 19.9802 866.124 19.1986C867.007 18.353 867.437 17.1304 867.412 15.5305C867.387 13.8667 866.921 12.6897 866.015 11.9994Z" fill="white"/>
<path d="M866.015 11.9994C865.107 11.2452 864.077 10.8768 862.925 10.8944C861.645 10.9139 860.595 11.3139 859.775 12.0945C858.954 12.8111 858.556 14.0013 858.581 15.6651C858.606 17.2649 859.04 18.4744 859.885 19.2936C860.728 20.0489 861.79 20.4168 863.07 20.3973C864.222 20.3797 865.24 19.9802 866.124 19.1986C867.007 18.353 867.437 17.1304 867.412 15.5305C867.387 13.8667 866.921 12.6897 866.015 11.9994Z" fill="white"/>
<path d="M855.444 1.30165C854.536 0.547394 853.507 0.179037 852.355 0.196584C851.075 0.216081 850.025 0.616121 849.205 1.3967C848.383 2.1133 847.986 3.3035 848.011 4.9673C848.035 6.56712 848.47 7.77664 849.314 8.59587C850.158 9.35111 851.22 9.71898 852.499 9.69948C853.651 9.68193 854.669 9.28238 855.554 8.50083C856.437 7.65527 856.866 6.43259 856.842 4.83277C856.817 3.16896 856.351 1.99193 855.444 1.30165Z" fill="white"/>
<path d="M855.444 1.30165C854.536 0.547394 853.507 0.179037 852.355 0.196584C851.075 0.216081 850.025 0.616121 849.205 1.3967C848.383 2.1133 847.986 3.3035 848.011 4.9673C848.035 6.56712 848.47 7.77664 849.314 8.59587C850.158 9.35111 851.22 9.71898 852.499 9.69948C853.651 9.68193 854.669 9.28238 855.554 8.50083C856.437 7.65527 856.866 6.43259 856.842 4.83277C856.817 3.16896 856.351 1.99193 855.444 1.30165Z" fill="white"/>
</g>
</svg>
